<?xml version="1.0" standalone="no" ?>
<!DOCTYPE svg PUBLIC "-//W3C//DTD SVG 1.1//EN" "http://www.w3.org/Graphics/SVG/1.1/DTD/svg11.dtd">
<svg width="800px" height="800px" xmlns="http://www.w3.org/2000/svg" version="1.1" >
	<g fill="none" >
	<g fill="none" >
	<g fill="none" >
	<line x1="60" y1="40" x2="770" y2="40" stroke-width="1" stroke="rgb(0,0,0)" />
	<line x1="60" y1="120" x2="770" y2="120" stroke-width="1" stroke="rgb(0,0,0)" />
	<line x1="60" y1="40" x2="60" y2="120" stroke-width="1" stroke="rgb(0,0,0)" />
	<line x1="770" y1="40" x2="770" y2="120" stroke-width="1" stroke="rgb(0,0,0)" />
	<line x1="60" y1="120" x2="60" y2="125" stroke-width="1" stroke="rgb(0,0,0)" />
	<text x="60" y="135" fill="rgb(0,0,0)" font-size="10" font-family="Arial" >0.00</text>
	<line x1="202" y1="120" x2="202" y2="125" stroke-width="1" stroke="rgb(0,0,0)" />
	<text x="202" y="135" fill="rgb(0,0,0)" font-size="10" font-family="Arial" >11.98</text>
	<line x1="344" y1="120" x2="344" y2="125" stroke-width="1" stroke="rgb(0,0,0)" />
	<text x="344" y="135" fill="rgb(0,0,0)" font-size="10" font-family="Arial" >23.96</text>
	<line x1="486" y1="120" x2="486" y2="125" stroke-width="1" stroke="rgb(0,0,0)" />
	<text x="486" y="135" fill="rgb(0,0,0)" font-size="10" font-family="Arial" >35.94</text>
	<line x1="628" y1="120" x2="628" y2="125" stroke-width="1" stroke="rgb(0,0,0)" />
	<text x="628" y="135" fill="rgb(0,0,0)" font-size="10" font-family="Arial" >47.92</text>
	<line x1="770" y1="120" x2="770" y2="125" stroke-width="1" stroke="rgb(0,0,0)" />
	<text x="770" y="135" fill="rgb(0,0,0)" font-size="10" font-family="Arial" >59.90</text>
	<line x1="60" y1="120" x2="55" y2="120" stroke-width="1" stroke="rgb(0,0,0)" />
	<text x="30" y="120" fill="rgb(0,0,0)" font-size="10" font-family="Arial" >40.00</text>
	<line x1="60" y1="104" x2="55" y2="104" stroke-width="1" stroke="rgb(0,0,0)" />
	<text x="30" y="104" fill="rgb(0,0,0)" font-size="10" font-family="Arial" >52.00</text>
	<line x1="60" y1="88" x2="55" y2="88" stroke-width="1" stroke="rgb(0,0,0)" />
	<text x="30" y="88" fill="rgb(0,0,0)" font-size="10" font-family="Arial" >64.00</text>
	<line x1="60" y1="72" x2="55" y2="72" stroke-width="1" stroke="rgb(0,0,0)" />
	<text x="30" y="72" fill="rgb(0,0,0)" font-size="10" font-family="Arial" >76.00</text>
	<line x1="60" y1="56" x2="55" y2="56" stroke-width="1" stroke="rgb(0,0,0)" />
	<text x="30" y="56" fill="rgb(0,0,0)" font-size="10" font-family="Arial" >88.00</text>
	<line x1="60" y1="40" x2="55" y2="40" stroke-width="1" stroke="rgb(0,0,0)" />
	<text x="30" y="40" fill="rgb(0,0,0)" font-size="10" font-family="Arial" >100.00</text>
	<text x="415" y="140" fill="rgb(0,0,0)" font-size="12" font-family="Arial" >Time (s)</text>
	<text x="20" y="80" fill="rgb(0,0,0)" font-size="12" font-family="Arial"  transform="rotate(-90 20 80)"></text>
	<text x="415" y="30" fill="rgb(0,0,0)" font-size="14" font-family="Arial" >Target Altitude (m)</text>
	<polyline points="60,40 61.1853,40 62.3706,40 63.5559,40 64.7412,40 65.9265,40 67.1119,40 68.2972,40 69.4825,40 70.6678,40 71.8531,40 73.0384,40 74.2237,40 75.409,40 76.5943,40 77.7796,40 78.9649,40 80.1503,40 81.3356,40 82.5209,40 83.7062,40 84.8915,40 86.0768,40 87.2621,40 88.4474,40 89.6327,40 90.818,40 92.0033,40 93.1886,40 94.374,40 95.5593,40 96.7446,40 97.9299,40 99.1152,40 100.301,40 101.486,40 102.671,40 103.856,40 105.042,40 106.227,40 107.412,40 108.598,40 109.783,40 110.968,40 112.154,40 113.339,40 114.524,40 115.71,40 116.895,40 118.08,40 119.265,40 120.451,40 121.636,40 122.821,40 124.007,40 125.192,40 126.377,40 127.563,40 128.748,40 129.933,40 131.119,40 132.304,40 133.489,40 134.674,40 135.86,40 137.045,40 138.23,40 139.416,40 140.601,40 141.786,40 142.972,40 144.157,40 145.342,40 146.528,40 147.713,40 148.898,40 150.083,40 151.269,40 152.454,40 153.639,40 154.825,40 156.01,40 157.195,40 158.381,40 159.566,40 160.751,40 161.937,40 163.122,40 164.307,40 165.492,40 166.678,40 167.863,40 169.048,40 170.234,40 171.419,40 172.604,40 173.79,40 174.975,40 176.16,40 177.346,40 178.531,40 179.716,40 180.902,40 182.087,40 183.272,40 184.457,40 185.643,40 186.828,40 188.013,40 189.199,40 190.384,40 191.569,40 192.755,40 193.94,40 195.125,40 196.311,40 197.496,40 198.681,40 199.866,40 201.052,40 202.237,40 203.422,40 204.608,40 205.793,40 206.978,40 208.164,40 209.349,40 210.534,40 211.72,40 212.905,40 214.09,40 215.275,40 216.461,40 217.646,40 218.831,40 220.017,40 221.202,40 222.387,40 223.573,40 224.758,40 225.943,40 227.129,40 228.314,40 229.499,40 230.684,40 231.87,40 233.055,40 234.24,40 235.426,40 236.611,40 237.796,40 238.982,40 240.167,40 241.352,40 242.538,40 243.723,40 244.908,40 246.093,40 247.279,40 248.464,40 249.649,40 250.835,40 252.02,40 253.205,40 254.391,40 255.576,40 256.761,40 257.947,40 259.132,40 260.317,40 261.503,40 262.688,40 263.873,40 265.058,40 266.244,40 267.429,40 268.614,40 269.8,40 270.985,40 272.17,40 273.356,40 274.541,40 275.726,40 276.912,40 278.097,40 279.282,40 280.467,40 281.653,40 282.838,40 284.023,40 285.209,40 286.394,40 287.579,40 288.765,40 289.95,40 291.135,40 292.321,40 293.506,40 294.691,40 295.876,40 297.062,40 298.247,40 299.432,40 300.618,40 301.803,40 302.988,40 304.174,40 305.359,40 306.544,40 307.73,40 308.915,40 310.1,40 311.285,40 312.471,40 313.656,40 314.841,40 316.027,40 317.212,40 318.397,40 319.583,40 320.768,40 321.953,40 323.139,40 324.324,40 325.509,40 326.694,40 327.88,40 329.065,40 330.25,40 331.436,40 332.621,40 333.806,40 334.992,40 336.177,40 337.362,40 338.548,40 339.733,40 340.918,40 342.104,40 343.289,40 344.474,40 345.659,40 346.845,40 348.03,40 349.215,40 350.401,40 351.586,40 352.771,40 353.957,40 355.142,40 356.327,40 357.513,40 358.698,40 359.883,40 361.068,40 362.254,40 363.439,40 364.624,40 365.81,40 366.995,40 368.18,40 369.366,40 370.551,40 371.736,40 372.922,40 374.107,40 375.292,40 376.477,40 377.663,40 378.848,40 380.033,40 381.219,40 382.404,40 383.589,40 384.775,40 385.96,40 387.145,40 388.331,40 389.516,40 390.701,40 391.886,40 393.072,40 394.257,40 395.442,40 396.628,40 397.813,40 398.998,40 400.184,40 401.369,40 402.554,40 403.74,40 404.925,40 406.11,40 407.295,40 408.481,40 409.666,40 410.851,40 412.037,40 413.222,40 414.407,40 415.593,40 416.778,120 417.963,120 419.149,120 420.334,120 421.519,120 422.705,120 423.89,120 425.075,120 426.26,120 427.446,120 428.631,120 429.816,120 431.002,120 432.187,120 433.372,120 434.558,120 435.743,120 436.928,120 438.114,120 439.299,120 440.484,120 441.669,120 442.855,120 444.04,120 445.225,120 446.411,120 447.596,120 448.781,120 449.967,120 451.152,120 452.337,120 453.523,120 454.708,120 455.893,120 457.078,120 458.264,120 459.449,120 460.634,120 461.82,120 463.005,120 464.19,120 465.376,120 466.561,120 467.746,120 468.932,120 470.117,120 471.302,120 472.487,120 473.673,120 474.858,120 476.043,120 477.229,120 478.414,120 479.599,120 480.785,120 481.97,120 483.155,120 484.341,120 485.526,120 486.711,120 487.896,120 489.082,120 490.267,120 491.452,120 492.638,120 493.823,120 495.008,120 496.194,120 497.379,120 498.564,120 499.75,120 500.935,120 502.12,120 503.306,120 504.491,120 505.676,120 506.861,120 508.047,120 509.232,120 510.417,120 511.603,120 512.788,120 513.973,120 515.159,120 516.344,120 517.529,120 518.715,120 519.9,120 521.085,120 522.27,120 523.456,120 524.641,120 525.826,120 527.012,120 528.197,120 529.382,120 530.568,120 531.753,120 532.938,120 534.124,120 535.309,120 536.494,120 537.679,120 538.865,120 540.05,120 541.235,120 542.421,120 543.606,120 544.791,120 545.977,120 547.162,120 548.347,120 549.533,120 550.718,120 551.903,120 553.088,120 554.274,120 555.459,120 556.644,120 557.83,120 559.015,120 560.2,120 561.386,120 562.571,120 563.756,120 564.942,120 566.127,120 567.312,120 568.497,120 569.683,120 570.868,120 572.053,120 573.239,120 574.424,120 575.609,120 576.795,120 577.98,120 579.165,120 580.351,120 581.536,120 582.721,120 583.907,120 585.092,120 586.277,120 587.462,120 588.648,120 589.833,120 591.018,120 592.204,120 593.389,120 594.574,120 595.76,120 596.945,120 598.13,120 599.316,120 600.501,120 601.686,120 602.871,120 604.057,120 605.242,120 606.427,120 607.613,120 608.798,120 609.983,120 611.169,120 612.354,120 613.539,120 614.725,120 615.91,120 617.095,120 618.28,120 619.466,120 620.651,120 621.836,120 623.022,120 624.207,120 625.392,120 626.578,120 627.763,120 628.948,120 630.134,120 631.319,120 632.504,120 633.689,120 634.875,120 636.06,120 637.245,120 638.431,120 639.616,120 640.801,120 641.987,120 643.172,120 644.357,120 645.543,120 646.728,120 647.913,120 649.098,120 650.284,120 651.469,120 652.654,120 653.84,120 655.025,120 656.21,120 657.396,120 658.581,120 659.766,120 660.952,120 662.137,120 663.322,120 664.508,120 665.693,120 666.878,120 668.063,120 669.249,120 670.434,120 671.619,120 672.805,120 673.99,120 675.175,120 676.361,120 677.546,120 678.731,120 679.917,120 681.102,120 682.287,120 683.472,120 684.658,120 685.843,120 687.028,120 688.214,120 689.399,120 690.584,120 691.77,120 692.955,120 694.14,120 695.326,120 696.511,120 697.696,120 698.881,120 700.067,120 701.252,120 702.437,120 703.623,120 704.808,120 705.993,120 707.179,120 708.364,120 709.549,120 710.735,120 711.92,120 713.105,120 714.29,120 715.476,120 716.661,120 717.846,120 719.032,120 720.217,120 721.402,120 722.588,120 723.773,120 724.958,120 726.144,120 727.329,120 728.514,120 729.699,120 730.885,120 732.07,120 733.255,120 734.441,120 735.626,120 736.811,120 737.997,120 739.182,120 740.367,120 741.553,120 742.738,120 743.923,120 745.109,120 746.294,120 747.479,120 748.664,120 749.85,120 751.035,120 752.22,120 753.406,120 754.591,120 755.776,120 756.962,120 758.147,120 759.332,120 760.518,120 761.703,120 762.888,120 764.073,120 765.259,120 766.444,120 767.629,120 768.815,120 770,120 " fill="none" stroke-width="2" stroke="rgb(255,0,0)" />
</g>
	<rect x="0" y="0" width="800" height="160" fill="none" stroke-width="1" stroke="rgb(255,0,0)" vector-effect="non-scaling-stroke" />
</g>
	<g fill="none" >
	<g fill="none" >
	<line x1="60" y1="200" x2="770" y2="200" stroke-width="1" stroke="rgb(0,0,0)" />
	<line x1="60" y1="280" x2="770" y2="280" stroke-width="1" stroke="rgb(0,0,0)" />
	<line x1="60" y1="200" x2="60" y2="280" stroke-width="1" stroke="rgb(0,0,0)" />
	<line x1="770" y1="200" x2="770" y2="280" stroke-width="1" stroke="rgb(0,0,0)" />
	<line x1="60" y1="280" x2="60" y2="285" stroke-width="1" stroke="rgb(0,0,0)" />
	<text x="60" y="295" fill="rgb(0,0,0)" font-size="10" font-family="Arial" >0.00</text>
	<line x1="202" y1="280" x2="202" y2="285" stroke-width="1" stroke="rgb(0,0,0)" />
	<text x="202" y="295" fill="rgb(0,0,0)" font-size="10" font-family="Arial" >11.98</text>
	<line x1="344" y1="280" x2="344" y2="285" stroke-width="1" stroke="rgb(0,0,0)" />
	<text x="344" y="295" fill="rgb(0,0,0)" font-size="10" font-family="Arial" >23.96</text>
	<line x1="486" y1="280" x2="486" y2="285" stroke-width="1" stroke="rgb(0,0,0)" />
	<text x="486" y="295" fill="rgb(0,0,0)" font-size="10" font-family="Arial" >35.94</text>
	<line x1="628" y1="280" x2="628" y2="285" stroke-width="1" stroke="rgb(0,0,0)" />
	<text x="628" y="295" fill="rgb(0,0,0)" font-size="10" font-family="Arial" >47.92</text>
	<line x1="770" y1="280" x2="770" y2="285" stroke-width="1" stroke="rgb(0,0,0)" />
	<text x="770" y="295" fill="rgb(0,0,0)" font-size="10" font-family="Arial" >59.90</text>
	<line x1="60" y1="280" x2="55" y2="280" stroke-width="1" stroke="rgb(0,0,0)" />
	<text x="30" y="280" fill="rgb(0,0,0)" font-size="10" font-family="Arial" >0.10</text>
	<line x1="60" y1="264" x2="55" y2="264" stroke-width="1" stroke="rgb(0,0,0)" />
	<text x="30" y="264" fill="rgb(0,0,0)" font-size="10" font-family="Arial" >20.08</text>
	<line x1="60" y1="248" x2="55" y2="248" stroke-width="1" stroke="rgb(0,0,0)" />
	<text x="30" y="248" fill="rgb(0,0,0)" font-size="10" font-family="Arial" >40.07</text>
	<line x1="60" y1="232" x2="55" y2="232" stroke-width="1" stroke="rgb(0,0,0)" />
	<text x="30" y="232" fill="rgb(0,0,0)" font-size="10" font-family="Arial" >60.05</text>
	<line x1="60" y1="216" x2="55" y2="216" stroke-width="1" stroke="rgb(0,0,0)" />
	<text x="30" y="216" fill="rgb(0,0,0)" font-size="10" font-family="Arial" >80.03</text>
	<line x1="60" y1="200" x2="55" y2="200" stroke-width="1" stroke="rgb(0,0,0)" />
	<text x="30" y="200" fill="rgb(0,0,0)" font-size="10" font-family="Arial" >100.01</text>
	<text x="415" y="300" fill="rgb(0,0,0)" font-size="12" font-family="Arial" >Time (s)</text>
	<text x="20" y="240" fill="rgb(0,0,0)" font-size="12" font-family="Arial"  transform="rotate(-90 20 240)"></text>
	<text x="415" y="190" fill="rgb(0,0,0)" font-size="14" font-family="Arial" >Altitude (m)</text>
	<polyline points="60,280 61.1853,279.837 62.3706,279.592 63.5559,279.266 64.7412,278.859 65.9265,278.372 67.1119,277.804 68.2972,277.156 69.4825,276.428 70.6678,275.622 71.8531,274.737 73.0384,273.775 74.2237,272.736 75.409,271.621 76.5943,270.43 77.7796,269.165 78.9649,267.827 80.1503,266.419 81.3356,264.948 82.5209,263.424 83.7062,261.856 84.8915,260.258 86.0768,258.641 87.2621,257.02 88.4474,255.406 89.6327,253.812 90.818,252.247 92.0033,250.723 93.1886,249.245 94.374,247.822 95.5593,246.457 96.7446,245.155 97.9299,243.916 99.1152,242.741 100.301,241.629 101.486,240.577 102.671,239.584 103.856,238.643 105.042,237.752 106.227,236.905 107.412,236.097 108.598,235.323 109.783,234.577 110.968,233.855 112.154,233.153 113.339,232.465 114.524,231.789 115.71,231.121 116.895,230.46 118.08,229.803 119.265,229.149 120.451,228.497 121.636,227.847 122.821,227.2 124.007,226.556 125.192,225.916 126.377,225.281 127.563,224.653 128.748,224.032 129.933,223.421 131.119,222.821 132.304,222.232 133.489,221.657 134.674,221.097 135.86,220.551 137.045,220.021 138.23,219.508 139.416,219.011 140.601,218.53 141.786,218.065 142.972,217.617 144.157,217.183 145.342,216.764 146.528,216.36 147.713,215.968 148.898,215.588 150.083,215.22 151.269,214.862 152.454,214.514 153.639,214.174 154.825,213.843 156.01,213.519 157.195,213.201 158.381,212.89 159.566,212.585 160.751,212.285 161.937,211.99 163.122,211.7 164.307,211.416 165.492,211.136 166.678,210.861 167.863,210.591 169.048,210.326 170.234,210.067 171.419,209.812 172.604,209.564 173.79,209.32 174.975,209.083 176.16,208.851 177.346,208.625 178.531,208.404 179.716,208.19 180.902,207.981 182.087,207.778 183.272,207.581 184.457,207.389 185.643,207.202 186.828,207.021 188.013,206.845 189.199,206.673 190.384,206.506 191.569,206.344 192.755,206.185 193.94,206.031 195.125,205.88 196.311,205.733 197.496,205.59 198.681,205.45 199.866,205.313 201.052,205.179 202.237,205.048 203.422,204.92 204.608,204.795 205.793,204.673 206.978,204.553 208.164,204.436 209.349,204.321 210.534,204.209 211.72,204.1 212.905,203.993 214.09,203.889 215.275,203.787 216.461,203.687 217.646,203.59 218.831,203.496 220.017,203.404 221.202,203.314 222.387,203.227 223.573,203.141 224.758,203.058 225.943,202.978 227.129,202.899 228.314,202.822 229.499,202.748 230.684,202.675 231.87,202.604 233.055,202.535 234.24,202.468 235.426,202.402 236.611,202.338 237.796,202.276 238.982,202.215 240.167,202.156 241.352,202.098 242.538,202.042 243.723,201.987 244.908,201.933 246.093,201.881 247.279,201.83 248.464,201.78 249.649,201.731 250.835,201.684 252.02,201.638 253.205,201.593 254.391,201.549 255.576,201.506 256.761,201.464 257.947,201.423 259.132,201.383 260.317,201.345 261.503,201.307 262.688,201.27 263.873,201.235 265.058,201.2 266.244,201.166 267.429,201.133 268.614,201.101 269.8,201.069 270.985,201.039 272.17,201.009 273.356,200.98 274.541,200.952 275.726,200.925 276.912,200.898 278.097,200.872 279.282,200.847 280.467,200.822 281.653,200.798 282.838,200.775 284.023,200.752 285.209,200.73 286.394,200.709 287.579,200.688 288.765,200.667 289.95,200.647 291.135,200.628 292.321,200.609 293.506,200.591 294.691,200.573 295.876,200.555 297.062,200.538 298.247,200.522 299.432,200.506 300.618,200.49 301.803,200.475 302.988,200.46 304.174,200.446 305.359,200.432 306.544,200.418 307.73,200.405 308.915,200.392 310.1,200.38 311.285,200.368 312.471,200.356 313.656,200.344 314.841,200.333 316.027,200.322 317.212,200.312 318.397,200.302 319.583,200.292 320.768,200.282 321.953,200.273 323.139,200.264 324.324,200.255 325.509,200.246 326.694,200.238 327.88,200.23 329.065,200.222 330.25,200.214 331.436,200.207 332.621,200.199 333.806,200.192 334.992,200.185 336.177,200.179 337.362,200.172 338.548,200.166 339.733,200.16 340.918,200.154 342.104,200.149 343.289,200.143 344.474,200.138 345.659,200.132 346.845,200.127 348.03,200.122 349.215,200.118 350.401,200.113 351.586,200.109 352.771,200.104 353.957,200.1 355.142,200.096 356.327,200.092 357.513,200.088 358.698,200.085 359.883,200.081 361.068,200.078 362.254,200.074 363.439,200.071 364.624,200.068 365.81,200.065 366.995,200.062 368.18,200.059 369.366,200.056 370.551,200.054 371.736,200.051 372.922,200.049 374.107,200.046 375.292,200.044 376.477,200.042 377.663,200.04 378.848,200.037 380.033,200.035 381.219,200.033 382.404,200.032 383.589,200.03 384.775,200.028 385.96,200.026 387.145,200.025 388.331,200.023 389.516,200.022 390.701,200.02 391.886,200.019 393.072,200.017 394.257,200.016 395.442,200.015 396.628,200.014 397.813,200.013 398.998,200.011 400.184,200.01 401.369,200.009 402.554,200.008 403.74,200.007 404.925,200.007 406.11,200.006 407.295,200.005 408.481,200.004 409.666,200.003 410.851,200.003 412.037,200.002 413.222,200.001 414.407,200.001 415.593,200 416.778,200.078 417.963,200.234 419.149,200.47 420.334,200.784 421.519,201.177 422.705,201.649 423.89,202.201 425.075,202.834 426.26,203.546 427.446,204.337 428.631,205.201 429.816,206.131 431.002,207.115 432.187,208.144 433.372,209.205 434.558,210.285 435.743,211.371 436.928,212.45 438.114,213.512 439.299,214.545 440.484,215.541 441.669,216.491 442.855,217.39 444.04,218.234 445.225,219.021 446.411,219.75 447.596,220.422 448.781,221.04 449.967,221.606 451.152,222.127 452.337,222.608 453.523,223.053 454.708,223.47 455.893,223.865 457.078,224.243 458.264,224.61 459.449,224.971 460.634,225.332 461.82,225.694 463.005,226.063 464.19,226.439 465.376,226.824 466.561,227.219 467.746,227.624 468.932,228.038 470.117,228.46 471.302,228.888 472.487,229.322 473.673,229.757 474.858,230.192 476.043,230.626 477.229,231.054 478.414,231.476 479.599,231.888 480.785,232.29 481.97,232.68 483.155,233.057 484.341,233.42 485.526,233.768 486.711,234.101 487.896,234.419 489.082,234.723 490.267,235.014 491.452,235.292 492.638,235.557 493.823,235.812 495.008,236.058 496.194,236.295 497.379,236.524 498.564,236.748 499.75,236.967 500.935,237.181 502.12,237.393 503.306,237.601 504.491,237.808 505.676,238.013 506.861,238.217 508.047,238.42 509.232,238.622 510.417,238.822 511.603,239.022 512.788,239.219 513.973,239.415 515.159,239.609 516.344,239.8 517.529,239.988 518.715,240.173 519.9,240.354 521.085,240.531 522.27,240.704 523.456,240.873 524.641,241.037 525.826,241.196 527.012,241.351 528.197,241.501 529.382,241.647 530.568,241.788 531.753,241.925 532.938,242.058 534.124,242.187 535.309,242.313 536.494,242.435 537.679,242.554 538.865,242.67 540.05,242.783 541.235,242.894 542.421,243.002 543.606,243.109 544.791,243.213 545.977,243.316 547.162,243.417 548.347,243.517 549.533,243.614 550.718,243.711 551.903,243.805 553.088,243.898 554.274,243.99 555.459,244.08 556.644,244.169 557.83,244.255 559.015,244.34 560.2,244.424 561.386,244.505 562.571,244.585 563.756,244.663 564.942,244.739 566.127,244.814 567.312,244.886 568.497,244.957 569.683,245.026 570.868,245.094 572.053,245.159 573.239,245.223 574.424,245.286 575.609,245.347 576.795,245.406 577.98,245.464 579.165,245.521 580.351,245.576 581.536,245.631 582.721,245.684 583.907,245.736 585.092,245.786 586.277,245.836 587.462,245.885 588.648,245.933 589.833,245.979 591.018,246.025 592.204,246.07 593.389,246.114 594.574,246.158 595.76,246.2 596.945,246.241 598.13,246.282 599.316,246.322 600.501,246.361 601.686,246.399 602.871,246.436 604.057,246.473 605.242,246.508 606.427,246.543 607.613,246.577 608.798,246.61 609.983,246.643 611.169,246.675 612.354,246.706 613.539,246.736 614.725,246.766 615.91,246.795 617.095,246.823 618.28,246.851 619.466,246.878 620.651,246.904 621.836,246.93 623.022,246.955 624.207,246.98 625.392,247.004 626.578,247.027 627.763,247.05 628.948,247.073 630.134,247.095 631.319,247.117 632.504,247.138 633.689,247.159 634.875,247.179 636.06,247.199 637.245,247.218 638.431,247.237 639.616,247.256 640.801,247.274 641.987,247.292 643.172,247.309 644.357,247.326 645.543,247.343 646.728,247.359 647.913,247.375 649.098,247.39 650.284,247.406 651.469,247.42 652.654,247.435 653.84,247.449 655.025,247.463 656.21,247.476 657.396,247.49 658.581,247.503 659.766,247.515 660.952,247.528 662.137,247.54 663.322,247.551 664.508,247.563 665.693,247.574 666.878,247.585 668.063,247.596 669.249,247.607 670.434,247.617 671.619,247.627 672.805,247.637 673.99,247.646 675.175,247.656 676.361,247.665 677.546,247.674 678.731,247.683 679.917,247.691 681.102,247.7 682.287,247.708 683.472,247.716 684.658,247.724 685.843,247.732 687.028,247.739 688.214,247.746 689.399,247.754 690.584,247.761 691.77,247.767 692.955,247.774 694.14,247.781 695.326,247.787 696.511,247.793 697.696,247.799 698.881,247.805 700.067,247.811 701.252,247.817 702.437,247.823 703.623,247.828 704.808,247.833 705.993,247.838 707.179,247.844 708.364,247.848 709.549,247.853 710.735,247.858 711.92,247.863 713.105,247.867 714.29,247.872 715.476,247.876 716.661,247.88 717.846,247.884 719.032,247.888 720.217,247.892 721.402,247.896 722.588,247.9 723.773,247.903 724.958,247.907 726.144,247.911 727.329,247.914 728.514,247.917 729.699,247.921 730.885,247.924 732.07,247.927 733.255,247.93 734.441,247.933 735.626,247.936 736.811,247.939 737.997,247.941 739.182,247.944 740.367,247.947 741.553,247.949 742.738,247.952 743.923,247.954 745.109,247.957 746.294,247.959 747.479,247.961 748.664,247.964 749.85,247.966 751.035,247.968 752.22,247.97 753.406,247.972 754.591,247.974 755.776,247.976 756.962,247.978 758.147,247.98 759.332,247.982 760.518,247.983 761.703,247.985 762.888,247.987 764.073,247.988 765.259,247.99 766.444,247.992 767.629,247.993 768.815,247.995 770,247.996 " fill="none" stroke-width="2" stroke="rgb(0,0,255)" />
</g>
	<rect x="0" y="160" width="800" height="320" fill="none" stroke-width="1" stroke="rgb(0,0,255)" vector-effect="non-scaling-stroke" />
</g>
	<g fill="none" >
	<g fill="none" >
	<line x1="60" y1="360" x2="770" y2="360" stroke-width="1" stroke="rgb(0,0,0)" />
	<line x1="60" y1="440" x2="770" y2="440" stroke-width="1" stroke="rgb(0,0,0)" />
	<line x1="60" y1="360" x2="60" y2="440" stroke-width="1" stroke="rgb(0,0,0)" />
	<line x1="770" y1="360" x2="770" y2="440" stroke-width="1" stroke="rgb(0,0,0)" />
	<line x1="60" y1="440" x2="60" y2="445" stroke-width="1" stroke="rgb(0,0,0)" />
	<text x="60" y="455" fill="rgb(0,0,0)" font-size="10" font-family="Arial" >0.00</text>
	<line x1="202" y1="440" x2="202" y2="445" stroke-width="1" stroke="rgb(0,0,0)" />
	<text x="202" y="455" fill="rgb(0,0,0)" font-size="10" font-family="Arial" >11.98</text>
	<line x1="344" y1="440" x2="344" y2="445" stroke-width="1" stroke="rgb(0,0,0)" />
	<text x="344" y="455" fill="rgb(0,0,0)" font-size="10" font-family="Arial" >23.96</text>
	<line x1="486" y1="440" x2="486" y2="445" stroke-width="1" stroke="rgb(0,0,0)" />
	<text x="486" y="455" fill="rgb(0,0,0)" font-size="10" font-family="Arial" >35.94</text>
	<line x1="628" y1="440" x2="628" y2="445" stroke-width="1" stroke="rgb(0,0,0)" />
	<text x="628" y="455" fill="rgb(0,0,0)" font-size="10" font-family="Arial" >47.92</text>
	<line x1="770" y1="440" x2="770" y2="445" stroke-width="1" stroke="rgb(0,0,0)" />
	<text x="770" y="455" fill="rgb(0,0,0)" font-size="10" font-family="Arial" >59.90</text>
	<line x1="60" y1="440" x2="55" y2="440" stroke-width="1" stroke="rgb(0,0,0)" />
	<text x="30" y="440" fill="rgb(0,0,0)" font-size="10" font-family="Arial" >-13.56</text>
	<line x1="60" y1="424" x2="55" y2="424" stroke-width="1" stroke="rgb(0,0,0)" />
	<text x="30" y="424" fill="rgb(0,0,0)" font-size="10" font-family="Arial" >-6.80</text>
	<line x1="60" y1="408" x2="55" y2="408" stroke-width="1" stroke="rgb(0,0,0)" />
	<text x="30" y="408" fill="rgb(0,0,0)" font-size="10" font-family="Arial" >-0.04</text>
	<line x1="60" y1="392" x2="55" y2="392" stroke-width="1" stroke="rgb(0,0,0)" />
	<text x="30" y="392" fill="rgb(0,0,0)" font-size="10" font-family="Arial" >6.72</text>
	<line x1="60" y1="376" x2="55" y2="376" stroke-width="1" stroke="rgb(0,0,0)" />
	<text x="30" y="376" fill="rgb(0,0,0)" font-size="10" font-family="Arial" >13.49</text>
	<line x1="60" y1="360" x2="55" y2="360" stroke-width="1" stroke="rgb(0,0,0)" />
	<text x="30" y="360" fill="rgb(0,0,0)" font-size="10" font-family="Arial" >20.25</text>
	<text x="415" y="460" fill="rgb(0,0,0)" font-size="12" font-family="Arial" >Time (s)</text>
	<text x="20" y="400" fill="rgb(0,0,0)" font-size="12" font-family="Arial"  transform="rotate(-90 20 400)"></text>
	<text x="415" y="350" fill="rgb(0,0,0)" font-size="14" font-family="Arial" >Velocity (m/s)</text>
	<polyline points="60,405.499 61.1853,403.089 62.3706,400.682 63.5559,398.28 64.7412,395.885 65.9265,393.499 67.1119,391.124 68.2972,388.761 69.4825,386.413 70.6678,384.082 71.8531,381.769 73.0384,379.476 74.2237,377.205 75.409,374.956 76.5943,372.733 77.7796,370.535 78.9649,368.365 80.1503,366.306 81.3356,364.445 82.5209,362.854 83.7062,361.587 84.8915,360.679 86.0768,360.149 87.2621,360 88.4474,360.222 89.6327,360.793 90.818,361.682 92.0033,362.85 93.1886,364.255 94.374,365.85 95.5593,367.587 96.7446,369.419 97.9299,371.301 99.1152,373.19 100.301,375.049 101.486,376.843 102.671,378.543 103.856,380.127 105.042,381.577 106.227,382.881 107.412,384.033 108.598,385.029 109.783,385.875 110.968,386.576 112.154,387.143 113.339,387.59 114.524,387.931 115.71,388.183 116.895,388.364 118.08,388.491 119.265,388.581 120.451,388.651 121.636,388.716 122.821,388.787 124.007,388.878 125.192,388.996 126.377,389.149 127.563,389.34 128.748,389.574 129.933,389.851 131.119,390.169 132.304,390.526 133.489,390.919 134.674,391.342 135.86,391.789 137.045,392.255 138.23,392.734 139.416,393.219 140.601,393.703 141.786,394.182 142.972,394.65 144.157,395.102 145.342,395.535 146.528,395.946 147.713,396.333 148.898,396.694 150.083,397.028 151.269,397.337 152.454,397.62 153.639,397.878 154.825,398.115 156.01,398.331 157.195,398.53 158.381,398.714 159.566,398.885 160.751,399.046 161.937,399.2 163.122,399.349 164.307,399.496 165.492,399.641 166.678,399.787 167.863,399.934 169.048,400.085 170.234,400.238 171.419,400.396 172.604,400.557 173.79,400.721 174.975,400.888 176.16,401.058 177.346,401.229 178.531,401.401 179.716,401.572 180.902,401.743 182.087,401.911 183.272,402.077 184.457,402.239 185.643,402.397 186.828,402.55 188.013,402.697 189.199,402.839 190.384,402.975 191.569,403.105 192.755,403.23 193.94,403.348 195.125,403.461 196.311,403.569 197.496,403.671 198.681,403.77 199.866,403.864 201.052,403.955 202.237,404.043 203.422,404.128 204.608,404.211 205.793,404.291 206.978,404.371 208.164,404.449 209.349,404.526 210.534,404.602 211.72,404.677 212.905,404.752 214.09,404.826 215.275,404.9 216.461,404.973 217.646,405.045 218.831,405.117 220.017,405.187 221.202,405.257 222.387,405.325 223.573,405.392 224.758,405.458 225.943,405.522 227.129,405.584 228.314,405.645 229.499,405.704 230.684,405.762 231.87,405.817 233.055,405.871 234.24,405.923 235.426,405.974 236.611,406.022 237.796,406.07 238.982,406.115 240.167,406.159 241.352,406.202 242.538,406.244 243.723,406.285 244.908,406.324 246.093,406.362 247.279,406.4 248.464,406.437 249.649,406.473 250.835,406.508 252.02,406.542 253.205,406.576 254.391,406.609 255.576,406.642 256.761,406.674 257.947,406.705 259.132,406.736 260.317,406.766 261.503,406.796 262.688,406.825 263.873,406.853 265.058,406.881 266.244,406.908 267.429,406.934 268.614,406.96 269.8,406.985 270.985,407.009 272.17,407.033 273.356,407.056 274.541,407.079 275.726,407.101 276.912,407.122 278.097,407.143 279.282,407.163 280.467,407.182 281.653,407.201 282.838,407.22 284.023,407.238 285.209,407.256 286.394,407.273 287.579,407.289 288.765,407.306 289.95,407.321 291.135,407.337 292.321,407.352 293.506,407.367 294.691,407.381 295.876,407.395 297.062,407.409 298.247,407.422 299.432,407.436 300.618,407.448 301.803,407.461 302.988,407.473 304.174,407.485 305.359,407.497 306.544,407.508 307.73,407.519 308.915,407.53 310.1,407.541 311.285,407.551 312.471,407.561 313.656,407.571 314.841,407.58 316.027,407.59 317.212,407.599 318.397,407.607 319.583,407.616 320.768,407.624 321.953,407.632 323.139,407.64 324.324,407.648 325.509,407.655 326.694,407.662 327.88,407.669 329.065,407.676 330.25,407.683 331.436,407.689 332.621,407.696 333.806,407.702 334.992,407.708 336.177,407.714 337.362,407.72 338.548,407.725 339.733,407.731 340.918,407.736 342.104,407.741 343.289,407.746 344.474,407.751 345.659,407.756 346.845,407.76 348.03,407.765 349.215,407.769 350.401,407.774 351.586,407.778 352.771,407.782 353.957,407.786 355.142,407.79 356.327,407.794 357.513,407.797 358.698,407.801 359.883,407.804 361.068,407.807 362.254,407.811 363.439,407.814 364.624,407.817 365.81,407.82 366.995,407.823 368.18,407.826 369.366,407.828 370.551,407.831 371.736,407.834 372.922,407.836 374.107,407.839 375.292,407.841 376.477,407.843 377.663,407.846 378.848,407.848 380.033,407.85 381.219,407.852 382.404,407.854 383.589,407.856 384.775,407.858 385.96,407.86 387.145,407.862 388.331,407.863 389.516,407.865 390.701,407.867 391.886,407.868 393.072,407.87 394.257,407.871 395.442,407.873 396.628,407.874 397.813,407.876 398.998,407.877 400.184,407.878 401.369,407.88 402.554,407.881 403.74,407.882 404.925,407.883 406.11,407.884 407.295,407.885 408.481,407.886 409.666,407.887 410.851,407.888 412.037,407.889 413.222,407.89 414.407,407.891 415.593,407.892 416.778,410.213 417.963,412.535 419.149,414.86 420.334,417.189 421.519,419.525 422.705,421.87 423.89,424.224 425.075,426.591 426.26,428.973 427.446,431.285 428.631,433.441 429.816,435.369 431.002,437.007 432.187,438.312 433.372,439.254 434.558,439.817 435.743,440 436.928,439.814 438.114,439.284 439.299,438.441 440.484,437.327 441.669,435.99 442.855,434.481 444.04,432.852 445.225,431.157 446.411,429.445 447.596,427.765 448.781,426.159 449.967,424.661 451.152,423.301 452.337,422.101 453.523,421.075 454.708,420.231 455.893,419.568 457.078,419.082 458.264,418.762 459.449,418.593 460.634,418.556 461.82,418.63 463.005,418.792 464.19,419.02 465.376,419.291 466.561,419.582 467.746,419.872 468.932,420.145 470.117,420.383 471.302,420.574 472.487,420.707 473.673,420.777 474.858,420.777 476.043,420.708 477.229,420.57 478.414,420.367 479.599,420.105 480.785,419.791 481.97,419.433 483.155,419.041 484.341,418.624 485.526,418.192 486.711,417.754 487.896,417.32 489.082,416.898 490.267,416.494 491.452,416.114 492.638,415.763 493.823,415.445 495.008,415.161 496.194,414.913 497.379,414.699 498.564,414.519 499.75,414.37 500.935,414.249 502.12,414.153 503.306,414.078 504.491,414.02 505.676,413.974 506.861,413.937 508.047,413.904 509.232,413.872 510.417,413.837 511.603,413.798 512.788,413.751 513.973,413.696 515.159,413.63 516.344,413.554 517.529,413.467 518.715,413.369 519.9,413.262 521.085,413.146 522.27,413.022 523.456,412.893 524.641,412.759 525.826,412.623 527.012,412.486 528.197,412.349 529.382,412.215 530.568,412.084 531.753,411.958 532.938,411.838 534.124,411.723 535.309,411.616 536.494,411.516 537.679,411.423 538.865,411.337 540.05,411.258 541.235,411.185 542.421,411.118 543.606,411.056 544.791,410.999 545.977,410.946 547.162,410.895 548.347,410.847 549.533,410.8 550.718,410.754 551.903,410.708 553.088,410.663 554.274,410.617 555.459,410.57 556.644,410.522 557.83,410.474 559.015,410.424 560.2,410.373 561.386,410.321 562.571,410.268 563.756,410.215 564.942,410.162 566.127,410.109 567.312,410.055 568.497,410.003 569.683,409.951 570.868,409.9 572.053,409.85 573.239,409.802 574.424,409.755 575.609,409.71 576.795,409.667 577.98,409.625 579.165,409.586 580.351,409.547 581.536,409.511 582.721,409.476 583.907,409.443 585.092,409.411 586.277,409.38 587.462,409.35 588.648,409.321 589.833,409.293 591.018,409.266 592.204,409.239 593.389,409.212 594.574,409.186 595.76,409.161 596.945,409.135 598.13,409.11 599.316,409.085 600.501,409.06 601.686,409.036 602.871,409.011 604.057,408.987 605.242,408.963 606.427,408.94 607.613,408.916 608.798,408.893 609.983,408.871 611.169,408.848 612.354,408.827 613.539,408.805 614.725,408.785 615.91,408.765 617.095,408.745 618.28,408.726 619.466,408.707 620.651,408.689 621.836,408.672 623.022,408.655 624.207,408.639 625.392,408.623 626.578,408.607 627.763,408.592 628.948,408.577 630.134,408.563 631.319,408.549 632.504,408.535 633.689,408.522 634.875,408.509 636.06,408.496 637.245,408.483 638.431,408.471 639.616,408.459 640.801,408.447 641.987,408.435 643.172,408.423 644.357,408.412 645.543,408.401 646.728,408.39 647.913,408.379 649.098,408.369 650.284,408.358 651.469,408.348 652.654,408.338 653.84,408.328 655.025,408.319 656.21,408.31 657.396,408.3 658.581,408.292 659.766,408.283 660.952,408.275 662.137,408.266 663.322,408.258 664.508,408.25 665.693,408.243 666.878,408.235 668.063,408.228 669.249,408.221 670.434,408.214 671.619,408.207 672.805,408.201 673.99,408.194 675.175,408.188 676.361,408.182 677.546,408.176 678.731,408.17 679.917,408.164 681.102,408.158 682.287,408.153 683.472,408.147 684.658,408.142 685.843,408.137 687.028,408.132 688.214,408.126 689.399,408.122 690.584,408.117 691.77,408.112 692.955,408.107 694.14,408.103 695.326,408.098 696.511,408.094 697.696,408.09 698.881,408.086 700.067,408.082 701.252,408.078 702.437,408.074 703.623,408.07 704.808,408.067 705.993,408.063 707.179,408.06 708.364,408.056 709.549,408.053 710.735,408.05 711.92,408.046 713.105,408.043 714.29,408.04 715.476,408.037 716.661,408.034 717.846,408.031 719.032,408.029 720.217,408.026 721.402,408.023 722.588,408.021 723.773,408.018 724.958,408.016 726.144,408.013 727.329,408.011 728.514,408.008 729.699,408.006 730.885,408.004 732.07,408.002 733.255,408 734.441,407.998 735.626,407.996 736.811,407.994 737.997,407.992 739.182,407.99 740.367,407.988 741.553,407.986 742.738,407.984 743.923,407.982 745.109,407.981 746.294,407.979 747.479,407.978 748.664,407.976 749.85,407.974 751.035,407.973 752.22,407.971 753.406,407.97 754.591,407.969 755.776,407.967 756.962,407.966 758.147,407.965 759.332,407.963 760.518,407.962 761.703,407.961 762.888,407.96 764.073,407.958 765.259,407.957 766.444,407.956 767.629,407.955 768.815,407.954 770,407.953 " fill="none" stroke-width="2" stroke="rgb(0,128,0)" />
</g>
	<rect x="0" y="320" width="800" height="480" fill="none" stroke-width="1" stroke="rgb(0,128,0)" vector-effect="non-scaling-stroke" />
</g>
	<g fill="none" >
	<g fill="none" >
	<line x1="60" y1="520" x2="770" y2="520" stroke-width="1" stroke="rgb(0,0,0)" />
	<line x1="60" y1="600" x2="770" y2="600" stroke-width="1" stroke="rgb(0,0,0)" />
	<line x1="60" y1="520" x2="60" y2="600" stroke-width="1" stroke="rgb(0,0,0)" />
	<line x1="770" y1="520" x2="770" y2="600" stroke-width="1" stroke="rgb(0,0,0)" />
	<line x1="60" y1="600" x2="60" y2="605" stroke-width="1" stroke="rgb(0,0,0)" />
	<text x="60" y="615" fill="rgb(0,0,0)" font-size="10" font-family="Arial" >0.00</text>
	<line x1="202" y1="600" x2="202" y2="605" stroke-width="1" stroke="rgb(0,0,0)" />
	<text x="202" y="615" fill="rgb(0,0,0)" font-size="10" font-family="Arial" >11.98</text>
	<line x1="344" y1="600" x2="344" y2="605" stroke-width="1" stroke="rgb(0,0,0)" />
	<text x="344" y="615" fill="rgb(0,0,0)" font-size="10" font-family="Arial" >23.96</text>
	<line x1="486" y1="600" x2="486" y2="605" stroke-width="1" stroke="rgb(0,0,0)" />
	<text x="486" y="615" fill="rgb(0,0,0)" font-size="10" font-family="Arial" >35.94</text>
	<line x1="628" y1="600" x2="628" y2="605" stroke-width="1" stroke="rgb(0,0,0)" />
	<text x="628" y="615" fill="rgb(0,0,0)" font-size="10" font-family="Arial" >47.92</text>
	<line x1="770" y1="600" x2="770" y2="605" stroke-width="1" stroke="rgb(0,0,0)" />
	<text x="770" y="615" fill="rgb(0,0,0)" font-size="10" font-family="Arial" >59.90</text>
	<line x1="60" y1="600" x2="55" y2="600" stroke-width="1" stroke="rgb(0,0,0)" />
	<text x="30" y="600" fill="rgb(0,0,0)" font-size="10" font-family="Arial" >0.00</text>
	<line x1="60" y1="584" x2="55" y2="584" stroke-width="1" stroke="rgb(0,0,0)" />
	<text x="30" y="584" fill="rgb(0,0,0)" font-size="10" font-family="Arial" >6.00</text>
	<line x1="60" y1="568" x2="55" y2="568" stroke-width="1" stroke="rgb(0,0,0)" />
	<text x="30" y="568" fill="rgb(0,0,0)" font-size="10" font-family="Arial" >12.00</text>
	<line x1="60" y1="552" x2="55" y2="552" stroke-width="1" stroke="rgb(0,0,0)" />
	<text x="30" y="552" fill="rgb(0,0,0)" font-size="10" font-family="Arial" >18.00</text>
	<line x1="60" y1="536" x2="55" y2="536" stroke-width="1" stroke="rgb(0,0,0)" />
	<text x="30" y="536" fill="rgb(0,0,0)" font-size="10" font-family="Arial" >24.00</text>
	<line x1="60" y1="520" x2="55" y2="520" stroke-width="1" stroke="rgb(0,0,0)" />
	<text x="30" y="520" fill="rgb(0,0,0)" font-size="10" font-family="Arial" >30.00</text>
	<text x="415" y="620" fill="rgb(0,0,0)" font-size="12" font-family="Arial" >Time (s)</text>
	<text x="20" y="560" fill="rgb(0,0,0)" font-size="12" font-family="Arial"  transform="rotate(-90 20 560)"></text>
	<text x="415" y="510" fill="rgb(0,0,0)" font-size="14" font-family="Arial" >Thrust (N)</text>
	<polyline points="60,520 61.1853,520 62.3706,520 63.5559,520 64.7412,520 65.9265,520 67.1119,520 68.2972,520 69.4825,520 70.6678,520 71.8531,520 73.0384,520 74.2237,520 75.409,520 76.5943,520 77.7796,520 78.9649,520 80.1503,521.375 81.3356,524.25 82.5209,528.357 83.7062,533.416 84.8915,539.149 86.0768,545.289 87.2621,551.586 88.4474,557.814 89.6327,563.777 90.818,569.31 92.0033,574.279 93.1886,578.585 94.374,582.159 95.5593,584.964 96.7446,586.991 97.9299,588.255 99.1152,588.794 100.301,588.664 101.486,587.936 102.671,586.693 103.856,585.023 105.042,583.021 106.227,580.781 107.412,578.394 108.598,575.949 109.783,573.526 110.968,571.196 112.154,569.021 113.339,567.049 114.524,565.319 115.71,563.859 116.895,562.683 118.08,561.795 119.265,561.19 120.451,560.854 121.636,560.766 122.821,560.899 124.007,561.221 125.192,561.699 126.377,562.296 127.563,562.977 128.748,563.708 129.933,564.454 131.119,565.187 132.304,565.881 133.489,566.513 134.674,567.066 135.86,567.526 137.045,567.884 138.23,568.136 139.416,568.281 140.601,568.322 141.786,568.265 142.972,568.12 144.157,567.895 145.342,567.605 146.528,567.261 147.713,566.878 148.898,566.47 150.083,566.049 151.269,565.627 152.454,565.217 153.639,564.827 154.825,564.465 156.01,564.139 157.195,563.852 158.381,563.607 159.566,563.407 160.751,563.25 161.937,563.135 163.122,563.059 164.307,563.019 165.492,563.01 166.678,563.026 167.863,563.064 169.048,563.117 170.234,563.18 171.419,563.248 172.604,563.316 173.79,563.38 174.975,563.437 176.16,563.483 177.346,563.516 178.531,563.535 179.716,563.538 180.902,563.526 182.087,563.498 183.272,563.456 184.457,563.4 185.643,563.333 186.828,563.256 188.013,563.171 189.199,563.08 190.384,562.985 191.569,562.888 192.755,562.792 193.94,562.699 195.125,562.608 196.311,562.523 197.496,562.443 198.681,562.371 199.866,562.305 201.052,562.247 202.237,562.197 203.422,562.154 204.608,562.118 205.793,562.087 206.978,562.063 208.164,562.043 209.349,562.027 210.534,562.014 211.72,562.004 212.905,561.994 214.09,561.985 215.275,561.976 216.461,561.967 217.646,561.956 218.831,561.943 220.017,561.929 221.202,561.913 222.387,561.894 223.573,561.873 224.758,561.851 225.943,561.826 227.129,561.8 228.314,561.773 229.499,561.745 230.684,561.716 231.87,561.687 233.055,561.658 234.24,561.629 235.426,561.601 236.611,561.574 237.796,561.547 238.982,561.522 240.167,561.499 241.352,561.477 242.538,561.456 243.723,561.437 244.908,561.419 246.093,561.403 247.279,561.387 248.464,561.373 249.649,561.361 250.835,561.348 252.02,561.337 253.205,561.326 254.391,561.316 255.576,561.306 256.761,561.296 257.947,561.286 259.132,561.276 260.317,561.266 261.503,561.256 262.688,561.246 263.873,561.236 265.058,561.225 266.244,561.215 267.429,561.204 268.614,561.193 269.8,561.182 270.985,561.171 272.17,561.16 273.356,561.149 274.541,561.139 275.726,561.128 276.912,561.118 278.097,561.108 279.282,561.098 280.467,561.089 281.653,561.08 282.838,561.071 284.023,561.063 285.209,561.055 286.394,561.048 287.579,561.04 288.765,561.034 289.95,561.027 291.135,561.021 292.321,561.014 293.506,561.009 294.691,561.003 295.876,560.997 297.062,560.992 298.247,560.987 299.432,560.982 300.618,560.977 301.803,560.972 302.988,560.967 304.174,560.962 305.359,560.957 306.544,560.952 307.73,560.947 308.915,560.943 310.1,560.938 311.285,560.933 312.471,560.929 313.656,560.925 314.841,560.92 316.027,560.916 317.212,560.912 318.397,560.908 319.583,560.904 320.768,560.9 321.953,560.896 323.139,560.892 324.324,560.889 325.509,560.885 326.694,560.882 327.88,560.879 329.065,560.876 330.25,560.873 331.436,560.87 332.621,560.867 333.806,560.864 334.992,560.862 336.177,560.859 337.362,560.857 338.548,560.854 339.733,560.852 340.918,560.85 342.104,560.847 343.289,560.845 344.474,560.843 345.659,560.841 346.845,560.839 348.03,560.837 349.215,560.835 350.401,560.833 351.586,560.831 352.771,560.829 353.957,560.827 355.142,560.825 356.327,560.823 357.513,560.822 358.698,560.82 359.883,560.818 361.068,560.817 362.254,560.815 363.439,560.813 364.624,560.812 365.81,560.811 366.995,560.809 368.18,560.808 369.366,560.806 370.551,560.805 371.736,560.804 372.922,560.803 374.107,560.802 375.292,560.8 376.477,560.799 377.663,560.798 378.848,560.797 380.033,560.796 381.219,560.795 382.404,560.794 383.589,560.793 384.775,560.792 385.96,560.791 387.145,560.79 388.331,560.79 389.516,560.789 390.701,560.788 391.886,560.787 393.072,560.786 394.257,560.785 395.442,560.785 396.628,560.784 397.813,560.783 398.998,560.783 400.184,560.782 401.369,560.781 402.554,560.781 403.74,560.78 404.925,560.779 406.11,560.779 407.295,560.778 408.481,560.778 409.666,560.777 410.851,560.777 412.037,560.776 413.222,560.776 414.407,560.775 415.593,560.775 416.778,600 417.963,600 419.149,600 420.334,600 421.519,600 422.705,600 423.89,600 425.075,600 426.26,600 427.446,598.556 428.631,595.625 429.816,591.442 431.002,586.263 432.187,580.354 433.372,573.983 434.558,567.411 435.743,560.882 436.928,554.619 438.114,548.818 439.299,543.64 440.484,539.214 441.669,535.63 442.855,532.94 444.04,531.164 445.225,530.283 446.411,530.254 447.596,531.005 448.781,532.445 449.967,534.466 451.152,536.952 452.337,539.78 453.523,542.828 454.708,545.978 455.893,549.118 457.078,552.15 458.264,554.986 459.449,557.555 460.634,559.799 461.82,561.68 463.005,563.173 464.19,564.268 465.376,564.971 466.561,565.298 467.746,565.278 468.932,564.947 470.117,564.35 471.302,563.534 472.487,562.551 473.673,561.452 474.858,560.288 476.043,559.106 477.229,557.953 478.414,556.865 479.599,555.877 480.785,555.014 481.97,554.298 483.155,553.741 484.341,553.348 485.526,553.122 486.711,553.055 487.896,553.138 489.082,553.357 490.267,553.693 491.452,554.126 492.638,554.636 493.823,555.199 495.008,555.795 496.194,556.403 497.379,557.003 498.564,557.579 499.75,558.115 500.935,558.599 502.12,559.022 503.306,559.378 504.491,559.663 505.676,559.877 506.861,560.021 508.047,560.098 509.232,560.114 510.417,560.075 511.603,559.991 512.788,559.87 513.973,559.721 515.159,559.552 516.344,559.374 517.529,559.194 518.715,559.02 519.9,558.858 521.085,558.714 522.27,558.593 523.456,558.497 524.641,558.428 525.826,558.388 527.012,558.377 528.197,558.392 529.382,558.432 530.568,558.495 531.753,558.577 532.938,558.675 534.124,558.785 535.309,558.903 536.494,559.026 537.679,559.15 538.865,559.272 540.05,559.388 541.235,559.497 542.421,559.597 543.606,559.686 544.791,559.762 545.977,559.826 547.162,559.877 548.347,559.916 549.533,559.944 550.718,559.96 551.903,559.968 553.088,559.967 554.274,559.96 555.459,559.948 556.644,559.933 557.83,559.915 559.015,559.898 560.2,559.881 561.386,559.866 562.571,559.854 563.756,559.846 564.942,559.842 566.127,559.842 567.312,559.847 568.497,559.857 569.683,559.87 570.868,559.888 572.053,559.909 573.239,559.933 574.424,559.96 575.609,559.988 576.795,560.018 577.98,560.048 579.165,560.078 580.351,560.107 581.536,560.136 582.721,560.163 583.907,560.188 585.092,560.21 586.277,560.231 587.462,560.25 588.648,560.266 589.833,560.28 591.018,560.292 592.204,560.301 593.389,560.31 594.574,560.316 595.76,560.322 596.945,560.326 598.13,560.33 599.316,560.333 600.501,560.337 601.686,560.34 602.871,560.343 604.057,560.347 605.242,560.351 606.427,560.356 607.613,560.362 608.798,560.368 609.983,560.375 611.169,560.382 612.354,560.39 613.539,560.399 614.725,560.408 615.91,560.417 617.095,560.426 618.28,560.435 619.466,560.445 620.651,560.454 621.836,560.463 623.022,560.472 624.207,560.481 625.392,560.489 626.578,560.496 627.763,560.503 628.948,560.51 630.134,560.516 631.319,560.522 632.504,560.528 633.689,560.533 634.875,560.537 636.06,560.542 637.245,560.546 638.431,560.55 639.616,560.553 640.801,560.557 641.987,560.56 643.172,560.564 644.357,560.567 645.543,560.57 646.728,560.574 647.913,560.577 649.098,560.581 650.284,560.584 651.469,560.588 652.654,560.591 653.84,560.595 655.025,560.599 656.21,560.602 657.396,560.606 658.581,560.61 659.766,560.613 660.952,560.617 662.137,560.621 663.322,560.624 664.508,560.627 665.693,560.631 666.878,560.634 668.063,560.637 669.249,560.64 670.434,560.643 671.619,560.645 672.805,560.648 673.99,560.65 675.175,560.653 676.361,560.655 677.546,560.657 678.731,560.66 679.917,560.662 681.102,560.664 682.287,560.666 683.472,560.668 684.658,560.669 685.843,560.671 687.028,560.673 688.214,560.675 689.399,560.677 690.584,560.678 691.77,560.68 692.955,560.682 694.14,560.684 695.326,560.685 696.511,560.687 697.696,560.689 698.881,560.69 700.067,560.692 701.252,560.693 702.437,560.695 703.623,560.696 704.808,560.698 705.993,560.699 707.179,560.701 708.364,560.702 709.549,560.704 710.735,560.705 711.92,560.706 713.105,560.707 714.29,560.708 715.476,560.71 716.661,560.711 717.846,560.712 719.032,560.713 720.217,560.714 721.402,560.715 722.588,560.716 723.773,560.717 724.958,560.718 726.144,560.719 727.329,560.72 728.514,560.721 729.699,560.721 730.885,560.722 732.07,560.723 733.255,560.724 734.441,560.725 735.626,560.726 736.811,560.726 737.997,560.727 739.182,560.728 740.367,560.729 741.553,560.729 742.738,560.73 743.923,560.731 745.109,560.731 746.294,560.732 747.479,560.733 748.664,560.733 749.85,560.734 751.035,560.734 752.22,560.735 753.406,560.736 754.591,560.736 755.776,560.737 756.962,560.737 758.147,560.738 759.332,560.738 760.518,560.739 761.703,560.739 762.888,560.74 764.073,560.74 765.259,560.741 766.444,560.741 767.629,560.741 768.815,560.742 770,560.742 " fill="none" stroke-width="2" stroke="rgb(128,0,128)" />
</g>
	<rect x="0" y="480" width="800" height="640" fill="none" stroke-width="1" stroke="rgb(128,0,128)" vector-effect="non-scaling-stroke" />
</g>
	<g fill="none" >
	<g fill="none" >
	<line x1="60" y1="680" x2="770" y2="680" stroke-width="1" stroke="rgb(0,0,0)" />
	<line x1="60" y1="760" x2="770" y2="760" stroke-width="1" stroke="rgb(0,0,0)" />
	<line x1="60" y1="680" x2="60" y2="760" stroke-width="1" stroke="rgb(0,0,0)" />
	<line x1="770" y1="680" x2="770" y2="760" stroke-width="1" stroke="rgb(0,0,0)" />
	<line x1="60" y1="760" x2="60" y2="765" stroke-width="1" stroke="rgb(0,0,0)" />
	<text x="60" y="775" fill="rgb(0,0,0)" font-size="10" font-family="Arial" >0.00</text>
	<line x1="202" y1="760" x2="202" y2="765" stroke-width="1" stroke="rgb(0,0,0)" />
	<text x="202" y="775" fill="rgb(0,0,0)" font-size="10" font-family="Arial" >11.98</text>
	<line x1="344" y1="760" x2="344" y2="765" stroke-width="1" stroke="rgb(0,0,0)" />
	<text x="344" y="775" fill="rgb(0,0,0)" font-size="10" font-family="Arial" >23.96</text>
	<line x1="486" y1="760" x2="486" y2="765" stroke-width="1" stroke="rgb(0,0,0)" />
	<text x="486" y="775" fill="rgb(0,0,0)" font-size="10" font-family="Arial" >35.94</text>
	<line x1="628" y1="760" x2="628" y2="765" stroke-width="1" stroke="rgb(0,0,0)" />
	<text x="628" y="775" fill="rgb(0,0,0)" font-size="10" font-family="Arial" >47.92</text>
	<line x1="770" y1="760" x2="770" y2="765" stroke-width="1" stroke="rgb(0,0,0)" />
	<text x="770" y="775" fill="rgb(0,0,0)" font-size="10" font-family="Arial" >59.90</text>
	<line x1="60" y1="760" x2="55" y2="760" stroke-width="1" stroke="rgb(0,0,0)" />
	<text x="30" y="760" fill="rgb(0,0,0)" font-size="10" font-family="Arial" >-10.06</text>
	<line x1="60" y1="744" x2="55" y2="744" stroke-width="1" stroke="rgb(0,0,0)" />
	<text x="30" y="744" fill="rgb(0,0,0)" font-size="10" font-family="Arial" >-6.01</text>
	<line x1="60" y1="728" x2="55" y2="728" stroke-width="1" stroke="rgb(0,0,0)" />
	<text x="30" y="728" fill="rgb(0,0,0)" font-size="10" font-family="Arial" >-1.96</text>
	<line x1="60" y1="712" x2="55" y2="712" stroke-width="1" stroke="rgb(0,0,0)" />
	<text x="30" y="712" fill="rgb(0,0,0)" font-size="10" font-family="Arial" >2.09</text>
	<line x1="60" y1="696" x2="55" y2="696" stroke-width="1" stroke="rgb(0,0,0)" />
	<text x="30" y="696" fill="rgb(0,0,0)" font-size="10" font-family="Arial" >6.14</text>
	<line x1="60" y1="680" x2="55" y2="680" stroke-width="1" stroke="rgb(0,0,0)" />
	<text x="30" y="680" fill="rgb(0,0,0)" font-size="10" font-family="Arial" >10.19</text>
	<text x="415" y="780" fill="rgb(0,0,0)" font-size="12" font-family="Arial" >Time (s)</text>
	<text x="20" y="720" fill="rgb(0,0,0)" font-size="12" font-family="Arial"  transform="rotate(-90 20 720)"></text>
	<text x="415" y="670" fill="rgb(0,0,0)" font-size="14" font-family="Arial" >Accelleration (m/s²)</text>
	<polyline points="60,680 61.1853,680.017 62.3706,680.067 63.5559,680.151 64.7412,680.267 65.9265,680.417 67.1119,680.598 68.2972,680.812 69.4825,681.056 70.6678,681.331 71.8531,681.636 73.0384,681.969 74.2237,682.329 75.409,682.716 76.5943,683.128 77.7796,683.565 78.9649,684.024 80.1503,685.863 81.3356,689.184 82.5209,693.695 83.7062,699.096 84.8915,705.091 86.0768,711.398 87.2621,717.76 88.4474,723.952 89.6327,729.779 90.818,735.086 92.0033,739.754 93.1886,743.698 94.374,746.868 95.5593,749.244 96.7446,750.833 97.9299,751.666 99.1152,751.791 100.301,751.274 101.486,750.194 102.671,748.635 103.856,746.69 105.042,744.452 106.227,742.014 107.412,739.465 108.598,736.889 109.783,734.362 110.968,731.952 112.154,729.716 113.339,727.7 114.524,725.939 115.71,724.458 116.895,723.267 118.08,722.37 119.265,721.758 120.451,721.417 121.636,721.322 122.821,721.446 124.007,721.757 125.192,722.219 126.377,722.795 127.563,723.451 128.748,724.152 129.933,724.864 131.119,725.559 132.304,726.211 133.489,726.799 134.674,727.306 135.86,727.719 137.045,728.031 138.23,728.237 139.416,728.338 140.601,728.337 141.786,728.24 142.972,728.058 144.157,727.8 145.342,727.479 146.528,727.108 147.713,726.702 148.898,726.272 150.083,725.832 151.269,725.395 152.454,724.971 153.639,724.569 154.825,724.196 156.01,723.86 157.195,723.565 158.381,723.313 159.566,723.105 160.751,722.941 161.937,722.819 163.122,722.736 164.307,722.689 165.492,722.673 166.678,722.683 167.863,722.713 169.048,722.758 170.234,722.814 171.419,722.874 172.604,722.934 173.79,722.991 174.975,723.04 176.16,723.078 177.346,723.104 178.531,723.116 179.716,723.113 180.902,723.094 182.087,723.061 183.272,723.013 184.457,722.953 185.643,722.881 186.828,722.8 188.013,722.711 189.199,722.616 190.384,722.519 191.569,722.42 192.755,722.321 193.94,722.225 195.125,722.133 196.311,722.045 197.496,721.964 198.681,721.89 199.866,721.823 201.052,721.764 202.237,721.712 203.422,721.667 204.608,721.629 205.793,721.598 206.978,721.572 208.164,721.551 209.349,721.533 210.534,721.519 211.72,721.507 212.905,721.496 214.09,721.486 215.275,721.476 216.461,721.465 217.646,721.453 218.831,721.44 220.017,721.425 221.202,721.407 222.387,721.388 223.573,721.366 224.758,721.343 225.943,721.318 227.129,721.291 228.314,721.264 229.499,721.235 230.684,721.206 231.87,721.176 233.055,721.147 234.24,721.118 235.426,721.089 236.611,721.062 237.796,721.035 238.982,721.01 240.167,720.986 241.352,720.964 242.538,720.943 243.723,720.924 244.908,720.906 246.093,720.889 247.279,720.874 248.464,720.86 249.649,720.847 250.835,720.835 252.02,720.823 253.205,720.812 254.391,720.802 255.576,720.791 256.761,720.781 257.947,720.772 259.132,720.762 260.317,720.752 261.503,720.742 262.688,720.731 263.873,720.721 265.058,720.71 266.244,720.7 267.429,720.689 268.614,720.678 269.8,720.667 270.985,720.656 272.17,720.645 273.356,720.634 274.541,720.624 275.726,720.613 276.912,720.603 278.097,720.593 279.282,720.583 280.467,720.574 281.653,720.565 282.838,720.557 284.023,720.548 285.209,720.54 286.394,720.533 287.579,720.526 288.765,720.519 289.95,720.512 291.135,720.506 292.321,720.5 293.506,720.494 294.691,720.488 295.876,720.483 297.062,720.478 298.247,720.472 299.432,720.467 300.618,720.462 301.803,720.457 302.988,720.452 304.174,720.447 305.359,720.443 306.544,720.438 307.73,720.433 308.915,720.429 310.1,720.424 311.285,720.419 312.471,720.415 313.656,720.411 314.841,720.406 316.027,720.402 317.212,720.398 318.397,720.394 319.583,720.39 320.768,720.386 321.953,720.382 323.139,720.379 324.324,720.375 325.509,720.372 326.694,720.369 327.88,720.365 329.065,720.362 330.25,720.359 331.436,720.356 332.621,720.354 333.806,720.351 334.992,720.348 336.177,720.346 337.362,720.343 338.548,720.341 339.733,720.339 340.918,720.336 342.104,720.334 343.289,720.332 344.474,720.33 345.659,720.327 346.845,720.325 348.03,720.323 349.215,720.321 350.401,720.319 351.586,720.317 352.771,720.316 353.957,720.314 355.142,720.312 356.327,720.31 357.513,720.308 358.698,720.307 359.883,720.305 361.068,720.304 362.254,720.302 363.439,720.301 364.624,720.299 365.81,720.298 366.995,720.296 368.18,720.295 369.366,720.294 370.551,720.292 371.736,720.291 372.922,720.29 374.107,720.289 375.292,720.288 376.477,720.286 377.663,720.285 378.848,720.284 380.033,720.283 381.219,720.282 382.404,720.281 383.589,720.28 384.775,720.28 385.96,720.279 387.145,720.278 388.331,720.277 389.516,720.276 390.701,720.275 391.886,720.274 393.072,720.274 394.257,720.273 395.442,720.272 396.628,720.271 397.813,720.271 398.998,720.27 400.184,720.269 401.369,720.269 402.554,720.268 403.74,720.267 404.925,720.267 406.11,720.266 407.295,720.266 408.481,720.265 409.666,720.265 410.851,720.264 412.037,720.264 413.222,720.263 414.407,720.263 415.593,720.262 416.778,758.995 417.963,759.01 419.149,759.056 420.334,759.134 421.519,759.243 422.705,759.383 423.89,759.556 425.075,759.761 426.26,760 427.446,758.847 428.631,756.248 429.816,752.422 431.002,747.602 432.187,742.034 433.372,735.968 434.558,729.645 435.743,723.301 436.928,717.151 438.114,711.388 439.299,706.179 440.484,701.658 441.669,697.927 442.855,695.05 444.04,693.057 445.225,691.946 446.411,691.682 447.596,692.203 448.781,693.424 449.967,695.244 451.152,697.548 452.337,700.214 453.523,703.122 454.708,706.151 455.893,709.19 457.078,712.138 458.264,714.906 459.449,717.422 460.634,719.628 461.82,721.483 463.005,722.961 464.19,724.053 465.376,724.761 466.561,725.102 467.746,725.101 468.932,724.795 470.117,724.224 471.302,723.435 472.487,722.478 473.673,721.403 474.858,720.258 476.043,719.092 477.229,717.947 478.414,716.863 479.599,715.873 480.785,715.003 481.97,714.274 483.155,713.699 484.341,713.286 485.526,713.036 486.711,712.944 487.896,713.001 489.082,713.193 490.267,713.502 491.452,713.909 492.638,714.394 493.823,714.935 495.008,715.509 496.194,716.097 497.379,716.68 498.564,717.239 499.75,717.761 500.935,718.234 502.12,718.647 503.306,718.996 504.491,719.275 505.676,719.484 506.861,719.624 508.047,719.698 509.232,719.713 510.417,719.674 511.603,719.59 512.788,719.469 513.973,719.32 515.159,719.152 516.344,718.974 517.529,718.793 518.715,718.618 519.9,718.456 521.085,718.31 522.27,718.187 523.456,718.088 524.641,718.017 525.826,717.974 527.012,717.958 528.197,717.97 529.382,718.006 530.568,718.064 531.753,718.142 532.938,718.236 534.124,718.342 535.309,718.456 536.494,718.575 537.679,718.695 538.865,718.814 540.05,718.927 541.235,719.033 542.421,719.13 543.606,719.216 544.791,719.291 545.977,719.353 547.162,719.403 548.347,719.44 549.533,719.467 550.718,719.482 551.903,719.489 553.088,719.487 554.274,719.48 555.459,719.467 556.644,719.451 557.83,719.433 559.015,719.415 560.2,719.398 561.386,719.383 562.571,719.37 563.756,719.361 564.942,719.357 566.127,719.356 567.312,719.36 568.497,719.369 569.683,719.382 570.868,719.399 572.053,719.419 573.239,719.442 574.424,719.468 575.609,719.496 576.795,719.524 577.98,719.554 579.165,719.583 580.351,719.611 581.536,719.639 582.721,719.665 583.907,719.69 585.092,719.712 586.277,719.732 587.462,719.75 588.648,719.766 589.833,719.779 591.018,719.791 592.204,719.8 593.389,719.808 594.574,719.814 595.76,719.82 596.945,719.824 598.13,719.827 599.316,719.831 600.501,719.834 601.686,719.837 602.871,719.84 604.057,719.844 605.242,719.848 606.427,719.852 607.613,719.858 608.798,719.864 609.983,719.87 611.169,719.877 612.354,719.885 613.539,719.893 614.725,719.902 615.91,719.911 617.095,719.92 618.28,719.929 619.466,719.938 620.651,719.948 621.836,719.956 623.022,719.965 624.207,719.973 625.392,719.981 626.578,719.989 627.763,719.996 628.948,720.002 630.134,720.009 631.319,720.014 632.504,720.02 633.689,720.024 634.875,720.029 636.06,720.033 637.245,720.037 638.431,720.041 639.616,720.044 640.801,720.048 641.987,720.051 643.172,720.055 644.357,720.058 645.543,720.061 646.728,720.064 647.913,720.068 649.098,720.071 650.284,720.075 651.469,720.078 652.654,720.082 653.84,720.085 655.025,720.089 656.21,720.092 657.396,720.096 658.581,720.1 659.766,720.103 660.952,720.107 662.137,720.11 663.322,720.114 664.508,720.117 665.693,720.12 666.878,720.123 668.063,720.126 669.249,720.129 670.434,720.132 671.619,720.135 672.805,720.137 673.99,720.14 675.175,720.142 676.361,720.144 677.546,720.147 678.731,720.149 679.917,720.151 681.102,720.153 682.287,720.155 683.472,720.157 684.658,720.158 685.843,720.16 687.028,720.162 688.214,720.164 689.399,720.166 690.584,720.167 691.77,720.169 692.955,720.171 694.14,720.172 695.326,720.174 696.511,720.176 697.696,720.177 698.881,720.179 700.067,720.18 701.252,720.182 702.437,720.184 703.623,720.185 704.808,720.187 705.993,720.188 707.179,720.189 708.364,720.191 709.549,720.192 710.735,720.193 711.92,720.195 713.105,720.196 714.29,720.197 715.476,720.198 716.661,720.199 717.846,720.2 719.032,720.201 720.217,720.202 721.402,720.203 722.588,720.204 723.773,720.205 724.958,720.206 726.144,720.207 727.329,720.208 728.514,720.209 729.699,720.21 730.885,720.21 732.07,720.211 733.255,720.212 734.441,720.213 735.626,720.214 736.811,720.214 737.997,720.215 739.182,720.216 740.367,720.217 741.553,720.217 742.738,720.218 743.923,720.219 745.109,720.219 746.294,720.22 747.479,720.221 748.664,720.221 749.85,720.222 751.035,720.223 752.22,720.223 753.406,720.224 754.591,720.224 755.776,720.225 756.962,720.225 758.147,720.226 759.332,720.226 760.518,720.227 761.703,720.227 762.888,720.228 764.073,720.228 765.259,720.229 766.444,720.229 767.629,720.229 768.815,720.23 770,720.23 " fill="none" stroke-width="2" stroke="rgb(255,165,0)" />
</g>
	<rect x="0" y="640" width="800" height="800" fill="none" stroke-width="1" stroke="rgb(255,165,0)" vector-effect="non-scaling-stroke" />
</g>
</g>
</svg>
